# xmcd
#
# Track frame offsets:
#	183
#	11695
#	31570
#	43568
#	57135
#	72480
#	84868
#	98615
#	112000
#	127453
#	137805
#	153165
#	165553
#	176743
#	187383
#	199333
#	212343
#
# Disc length: 2960 seconds
#
# Revision: 1
# Processed by: cddbd v1.5.1PL0 Copyright (c) Steve Scherf et al.
# Submitted via: audiograbber 1.83.01
#
DISCID=eb0b8e11
DTITLE=Perkins, Carl - 16 Greatest Songs
DYEAR=1990
DGENRE=Country
TTITLE0=Sure To Fall
TTITLE1=Old Time Religion
TTITLE2=I Want You Back Again
TTITLE3=Every Road
TTITLE4=I Don't Want To Fall In Love Again
TTITLE5=Sundays Are The Sun Days For My Lord
TTITLE6=I Don't Want To Bring On The Rain
TTITLE7=Turn Around
TTITLE8=21
TTITLE9=I Don't Like What I'm Seeing In You
TTITLE10=The Hurt Put On By You
TTITLE11=Mama
TTITLE12=Sing A Song With Me
TTITLE13=What Am I Living For
TTITLE14=Rise And Shine
TTITLE15=Let The Jukebox Keep On Playing
TTITLE16=This Ole House
EXTD=
EXTT0=
EXTT1=
EXTT2=
EXTT3=
EXTT4=
EXTT5=
EXTT6=
EXTT7=
EXTT8=
EXTT9=
EXTT10=
EXTT11=
EXTT12=
EXTT13=
EXTT14=
EXTT15=
EXTT16=
PLAYORDER=
